#!OML:ASF E:\Style6\Style6.ASF
:FULLY-SPECIFIED
:DEGREES
2549
root 0.607641 17.2032 -1.02516 2.59282 -3.87779 -1.12477
lowerback 14.7259 -1.77541 3.77333
upperback 16.4406 -2.23443 1.82755
thorax 9.59094 -0.881214 0.0132736
lowerneck 10.4259 -0.38191 2.38626
upperneck -12.6576 -1.17916 -7.22134
head -5.58895 -0.169316 -2.57211
rclavicle -1.94809e-014 1.11319e-014
rhumerus 38.5214 11.5267 -69.0695
rradius 50.9546
rwrist 41.7206
rhand -6.05862 7.73026
rfingers 7.12502
rthumb 19.776 -21.2837
lclavicle -1.94809e-014 1.11319e-014
lhumerus 34.245 -14.0711 65.4599
lradius 56.9011
lwrist -15.1714
lhand -8.82601 21.865
lfingers 7.12502
lthumb 17.1139 51.1313
rfemur -29.817 -5.89116 19.7962
rtibia 44.2204
rfoot -10.7162 -4.67379
rtoes -6.34636
lfemur -28.1371 8.70193 -18.2624
ltibia 47.0509
lfoot -14.4466 4.04054
ltoes -18.9578
2550
root 0.608987 17.2026 -1.02481 2.5537 -3.87709 -1.06559
lowerback 14.7394 -1.79016 3.70044
upperback 16.4572 -2.25869 1.8141
thorax 9.60381 -0.900001 0.040937
lowerneck 10.3637 -0.362017 2.32012
upperneck -12.6439 -1.15786 -7.18979
head -5.57254 -0.159409 -2.55244
rclavicle 2.38542e-014 3.97569e-016
rhumerus 38.5663 11.6088 -69.04
rradius 50.9905
rwrist 41.7504
rhand -6.03346 7.73642
rfingers 7.12502
rthumb 19.8002 -21.275
lclavicle 2.38542e-014 3.97569e-016
lhumerus 34.2501 -14.0629 65.3574
lradius 56.9109
lwrist -15.1571
lhand -8.93151 21.9031
lfingers 7.12502
lthumb 17.0124 51.1782
rfemur -29.7961 -5.9413 19.7271
rtibia 44.2641
rfoot -10.722 -4.66505
rtoes -6.78348
lfemur -28.108 8.72241 -18.3275
ltibia 47.0693
lfoot -14.4676 3.96414
ltoes -18.4744
2551
root 0.610421 17.2017 -1.02588 2.52277 -3.8734 -1.00582
lowerback 14.7997 -1.80607 3.66677
upperback 16.4758 -2.27796 1.78683
thorax 9.59229 -0.911389 0.0329241
lowerneck 10.2452 -0.35463 2.32204
upperneck -12.6233 -1.15134 -7.21947
head -5.54564 -0.156801 -2.56201
rclavicle 2.78299e-015 -3.97569e-015
rhumerus 38.6124 11.6341 -69.0344
rradius 51.0535
rwrist 41.7738
rhand -5.86421 7.79178
rfingers 7.12502
rthumb 19.9629 -21.2028
lclavicle 2.78299e-015 -3.97569e-015
lhumerus 34.2795 -14.0663 65.2388
lradius 56.9794
lwrist -15.108
lhand -9.00736 21.8879
lfingers 7.12502
lthumb 16.9394 51.1692
rfemur -29.7758 -5.95978 19.6473
rtibia 44.2838
rfoot -10.7344 -4.50349
rtoes -5.90306
lfemur -28.0912 8.76032 -18.3996
ltibia 47.0948
lfoot -14.4714 3.95196
ltoes -18.7244
2552
root 0.611777 17.2016 -1.02737 2.49302 -3.88699 -1.07284
lowerback 14.8704 -1.80851 3.74443
upperback 16.4641 -2.27197 1.80669
thorax 9.5392 -0.90263 0.0130176
lowerneck 10.2515 -0.363354 2.31718
upperneck -12.6406 -1.16659 -7.22971
head -5.55295 -0.162893 -2.56347
rclavicle -1.27222e-014 4.96962e-014
rhumerus 38.5987 11.6665 -68.9925
rradius 51.1006
rwrist 41.8211
rhand -5.70386 7.81371
rfingers 7.12502
rthumb 20.117 -21.1648
lclavicle -1.27222e-014 4.96962e-014
lhumerus 34.2379 -14.1005 65.2316
lradius 57.0433
lwrist -15.1107
lhand -9.05001 21.8737
lfingers 7.12502
lthumb 16.8983 51.1585
rfemur -29.7446 -5.96698 19.7171
rtibia 44.2797
rfoot -10.6902 -4.38512
rtoes -4.97157
lfemur -28.0736 8.82949 -18.3262
ltibia 47.139
lfoot -14.4987 3.92789
ltoes -18.925
2553
root 0.612482 17.2 -1.02875 2.46562 -3.90183 -1.17366
lowerback 14.8828 -1.81287 3.8301
upperback 16.4753 -2.27318 1.83846
thorax 9.54604 -0.896632 0.000301484
lowerneck 10.2674 -0.357366 2.23068
upperneck -12.695 -1.16299 -7.14277
head -5.57165 -0.161998 -2.52249
rclavicle -2.06736e-014 -3.97569e-016
rhumerus 38.6294 11.7325 -68.916
rradius 51.1347
rwrist 41.8163
rhand -5.75154 7.81505
rfingers 7.12502
rthumb 20.0712 -21.1682
lclavicle -2.06736e-014 -3.97569e-016
lhumerus 34.2205 -14.1097 65.2279
lradius 57.0815
lwrist -15.1399
lhand -8.99403 21.9203
lfingers 7.12502
lthumb 16.9522 51.2005
rfemur -29.7106 -5.94522 19.8244
rtibia 44.2827
rfoot -10.7125 -4.49845
rtoes -5.73887
lfemur -28.0736 8.90864 -18.2118
ltibia 47.2015
lfoot -14.5506 3.86035
ltoes -18.8926
2554
root 0.613085 17.1967 -1.0296 2.466 -3.90822 -1.27689
lowerback 14.8635 -1.82969 3.92111
upperback 16.4866 -2.29175 1.86127
thorax 9.5693 -0.897778 -0.0247601
lowerneck 10.2974 -0.33989 2.17115
upperneck -12.7925 -1.14707 -7.09246
head -5.60592 -0.152728 -2.49906
rclavicle 5.56597e-015 -1.66979e-014
rhumerus 38.6952 11.8303 -68.8304
rradius 51.1467
rwrist 41.7628
rhand -5.82087 7.7992
rfingers 7.12502
rthumb 20.0045 -21.1911
lclavicle 5.56597e-015 -1.66979e-014
lhumerus 34.2136 -14.0932 65.1709
lradius 57.1362
lwrist -15.1305
lhand -8.85953 21.9581
lfingers 7.12502
lthumb 17.0817 51.2272
rfemur -29.7158 -5.93734 19.9378
rtibia 44.3021
rfoot -10.7748 -4.53467
rtoes -6.12065
lfemur -28.1079 8.93538 -18.0976
ltibia 47.2658
lfoot -14.5694 3.86729
ltoes -19.023
2555
root 0.613843 17.1936 -1.03078 2.46727 -3.90319 -1.24113
lowerback 14.8429 -1.83022 3.89819
upperback 16.4881 -2.29417 1.84001
thorax 9.58158 -0.899519 -0.035489
lowerneck 10.3439 -0.348854 2.22816
upperneck -12.8742 -1.15853 -7.11942
head -5.64028 -0.156912 -2.5172
rclavicle -9.93923e-015 3.53837e-014
rhumerus 38.7128 11.8772 -68.7816
rradius 51.1863
rwrist 41.7459
rhand -5.82827 7.82948
rfingers 7.12502
rthumb 19.9974 -21.1615
lclavicle -9.93923e-015 3.53837e-014
lhumerus 34.2085 -14.1232 65.1318
lradius 57.1401
lwrist -15.1933
lhand -8.84201 21.9661
lfingers 7.12502
lthumb 17.0985 51.2337
rfemur -29.7651 -5.95238 19.8974
rtibia 44.3728
rfoot -10.8138 -4.51776
rtoes -6.0929
lfemur -28.1496 8.94385 -18.1426
ltibia 47.3141
lfoot -14.56 3.85218
ltoes -19.0591
2556
root 0.61556 17.1901 -1.03262 2.44378 -3.86748 -1.10957
lowerback 14.8567 -1.83711 3.77613
upperback 16.4874 -2.31016 1.82316
thorax 9.57436 -0.919131 0.0153281
lowerneck 10.3928 -0.347001 2.16756
upperneck -12.9455 -1.16509 -7.08624
head -5.67092 -0.157434 -2.49705
rclavicle 1.90833e-014 -9.93923e-015
rhumerus 38.7157 11.9222 -68.7376
rradius 51.2547
rwrist 41.7575
rhand -5.77197 7.83508
rfingers 7.12502
rthumb 20.0515 -21.1503
lclavicle 1.90833e-014 -9.93923e-015
lhumerus 34.2036 -14.1459 65.102
lradius 57.1581
lwrist -15.2033
lhand -8.91644 21.9801
lfingers 7.12502
lthumb 17.0269 51.2539
rfemur -29.8138 -6.04804 19.7532
rtibia 44.4708
rfoot -10.7941 -4.57527
rtoes -6.68357
lfemur -28.1666 8.92791 -18.297
ltibia 47.3553
lfoot -14.5845 3.87177
ltoes -19.1082
2557
root 0.616888 17.1845 -1.03505 2.43503 -3.85786 -0.942983
lowerback 14.8591 -1.82655 3.63051
upperback 16.4774 -2.30397 1.78184
thorax 9.56186 -0.928377 0.0509894
lowerneck 10.4314 -0.363114 2.16321
upperneck -12.9711 -1.18899 -7.08456
head -5.68671 -0.167885 -2.49431
rclavicle 2.5842e-014 -3.4191e-014
rhumerus 38.6644 11.9295 -68.7438
rradius 51.3334
rwrist 41.7865
rhand -5.78168 7.74386
rfingers 7.12502
rthumb 20.0422 -21.2425
lclavicle 2.5842e-014 -3.4191e-014
lhumerus 34.2223 -14.2057 65.0127
lradius 57.1897
lwrist -15.1942
lhand -8.93352 22.1004
lfingers 7.12502
lthumb 17.0104 51.3756
rfemur -29.906 -6.11097 19.5686
rtibia 44.5933
rfoot -10.8124 -4.54112
rtoes -6.47937
lfemur -28.1979 8.91975 -18.488
ltibia 47.3895
lfoot -14.6256 3.85871
ltoes -18.976
2558
root 0.617151 17.1786 -1.03757 2.4359 -3.83799 -0.941335
lowerback 14.8636 -1.82426 3.62761
upperback 16.4823 -2.30094 1.78367
thorax 9.56556 -0.927122 0.0544947
lowerneck 10.4267 -0.376038 2.18027
upperneck -13.0105 -1.20856 -7.10002
head -5.69934 -0.17659 -2.50089
rclavicle -2.3059e-014 2.34566e-014
rhumerus 38.6744 11.9326 -68.7095
rradius 51.3888
rwrist 41.7956
rhand -5.77752 7.67423
rfingers 7.12502
rthumb 20.0462 -21.3117
lclavicle -2.3059e-014 2.34566e-014
lhumerus 34.3172 -14.2275 64.9173
lradius 57.1939
lwrist -15.2227
lhand -8.78485 22.097
lfingers 7.12502
lthumb 17.1535 51.3598
rfemur -29.9622 -6.15063 19.5695
rtibia 44.689
rfoot -10.8487 -4.47413
rtoes -6.21114
lfemur -28.2487 8.91487 -18.4918
ltibia 47.4453
lfoot -14.6417 3.82952
ltoes -18.7565
2559
root 0.617769 17.1765 -1.03892 2.40838 -3.84103 -0.939042
lowerback 14.8547 -1.81276 3.65001
upperback 16.5025 -2.28443 1.76508
thorax 9.59377 -0.914513 0.0205728
lowerneck 10.3933 -0.384605 2.23291
upperneck -12.972 -1.2129 -7.12351
head -5.68207 -0.180866 -2.5162
rclavicle -1.07344e-014 -2.38542e-015
rhumerus 38.6789 11.8953 -68.6859
rradius 51.4423
rwrist 41.7752
rhand -5.6377 7.67297
rfingers 7.12502
rthumb 20.1806 -21.2988
lclavicle -1.07344e-014 -2.38542e-015
lhumerus 34.452 -14.2898 64.8208
lradius 57.1596
lwrist -15.2642
lhand -8.72471 22.1432
lfingers 7.12502
lthumb 17.2114 51.401
rfemur -29.9699 -6.16675 19.5619
rtibia 44.758
rfoot -10.9001 -4.46664
rtoes -6.1854
lfemur -28.2644 8.94593 -18.4989
ltibia 47.5172
lfoot -14.642 3.83156
ltoes -19.1719
2560
root 0.618868 17.174 -1.03988 2.38948 -3.85386 -1.00745
lowerback 14.8277 -1.80133 3.74447
upperback 16.5351 -2.2655 1.76503
thorax 9.64655 -0.894055 -0.0339054
lowerneck 10.328 -0.412623 2.29554
upperneck -12.9086 -1.24322 -7.16151
head -5.65305 -0.198331 -2.53535
rclavicle -1.63003e-014 5.1684e-015
rhumerus 38.7103 11.8437 -68.6459
rradius 51.4773
rwrist 41.794
rhand -5.58657 7.74752
rfingers 7.12502
rthumb 20.2297 -21.2191
lclavicle -1.63003e-014 5.1684e-015
lhumerus 34.5203 -14.3368 64.7686
lradius 57.2129
lwrist -15.3027
lhand -8.73233 22.1965
lfingers 7.12502
lthumb 17.2041 51.4549
rfemur -29.9714 -6.1555 19.6319
rtibia 44.8053
rfoot -10.93 -4.45797
rtoes -6.40386
lfemur -28.294 8.98143 -18.4204
ltibia 47.6116
lfoot -14.6858 3.80499
ltoes -19.2699
2561
root 0.620924 17.1687 -1.04209 2.36243 -3.83792 -1.1761
lowerback 14.839 -1.82353 3.93637
upperback 16.5574 -2.28208 1.78947
thorax 9.66468 -0.883409 -0.112361
lowerneck 10.2611 -0.42479 2.33182
upperneck -12.8446 -1.25393 -7.18418
head -5.62238 -0.206069 -2.54682
rclavicle 1.11319e-014 -1.19271e-015
rhumerus 38.7075 11.8677 -68.6246
rradius 51.5548
rwrist 41.8265
rhand -5.68619 7.72768
rfingers 7.12502
rthumb 20.134 -21.249
lclavicle 1.11319e-014 -1.19271e-015
lhumerus 34.5378 -14.3435 64.7249
lradius 57.2666
lwrist -15.319
lhand -8.75397 22.2146
lfingers 7.12502
lthumb 17.1833 51.4748
rfemur -29.9589 -6.18982 19.8147
rtibia 44.8507
rfoot -10.9362 -4.41689
rtoes -6.45993
lfemur -28.3303 9.00299 -18.2288
ltibia 47.7273
lfoot -14.7541 3.73725
ltoes -19.0642
2562
root 0.622057 17.1622 -1.04468 2.34351 -3.81407 -1.17686
lowerback 14.8624 -1.82828 3.93616
upperback 16.5563 -2.28655 1.78969
thorax 9.65049 -0.885836 -0.11103
lowerneck 10.1569 -0.423989 2.32954
upperneck -12.7339 -1.24474 -7.16686
head -5.56938 -0.206569 -2.54017
rclavicle 1.59028e-015 -1.03368e-014
rhumerus 38.6644 11.9238 -68.5725
rradius 51.6928
rwrist 41.7733
rhand -5.81538 7.62328
rfingers 7.12502
rthumb 20.0098 -21.3664
lclavicle 1.59028e-015 -1.03368e-014
lhumerus 34.5673 -14.3808 64.6657
lradius 57.3016
lwrist -15.2837
lhand -8.87115 22.2004
lfingers 7.12502
lthumb 17.0705 51.4704
rfemur -29.9872 -6.24384 19.8174
rtibia 44.9216
rfoot -10.9351 -4.42167
rtoes -6.78103
lfemur -28.3787 8.98794 -18.2295
ltibia 47.8287
lfoot -14.8081 3.71536
ltoes -18.8199
2563
root 0.622373 17.1566 -1.04608 2.34953 -3.82616 -1.14264
lowerback 14.8504 -1.80445 3.92472
upperback 16.5459 -2.25502 1.77009
thorax 9.64438 -0.869752 -0.128255
lowerneck 10.1406 -0.458078 2.27827
upperneck -12.7064 -1.28587 -7.08206
head -5.55937 -0.231115 -2.50128
rclavicle -3.49861e-014 4.37326e-014
rhumerus 38.5874 11.8944 -68.5749
rradius 51.7777
rwrist 41.7934
rhand -5.91038 7.59679
rfingers 7.12502
rthumb 19.9185 -21.4024
lclavicle -3.49861e-014 4.37326e-014
lhumerus 34.6072 -14.4578 64.626
lradius 57.3306
lwrist -15.2824
lhand -8.85792 22.1988
lfingers 7.12502
lthumb 17.0832 51.4677
rfemur -30.0513 -6.27174 19.7868
rtibia 44.9973
rfoot -10.9163 -4.47187
rtoes -7.15645
lfemur -28.4444 9.03048 -18.2797
ltibia 47.9288
lfoot -14.8547 3.72329
ltoes -18.8212
